<svg width="210mm" height="297mm" viewBox="0 0 210 297" xml:space="preserve" xmlns="http://www.w3.org/2000/svg"><path style="fill:#fff;stroke-width:.139271;stroke:#fff" d="M74.472 236.395c-1.884-.702-3.138-2.142-4.176-4.799-.623-1.593-1.169-3.684-1.438-5.512-.261-1.768-.209-8.97.085-11.77 1.127-10.725 3.2-18.17 8.554-30.709.665-1.558 1.62-3.342 3.427-6.406 1.378-2.337 2.753-4.673 3.056-5.193l.551-.945 3.189 4.785 3.188 4.785-2.341 4.725c-5.727 11.557-7.963 17.669-9.115 24.92-.105.659-.175 2.336-.172 4.108.004 2.529.05 3.203.301 4.336.855 3.867 2.652 6.209 5.556 7.24 1.052.373 3.648.509 5.167.27 6.59-1.035 15.571-5.367 34.284-16.538 1.334-.796 2.512-1.43 2.617-1.407.156.033-3.184 2.768-4.84 3.963-.229.166-.65.497-.936.736-.286.24-.582.48-.659.534a63.44 63.44 0 0 0-2.298 1.745c-.421.331-1.8 1.377-3.064 2.324-1.264.946-2.33 1.76-2.367 1.807-.039.048-.29.237-.558.421-.268.185-.518.371-.557.416-.038.044-.41.321-.825.616-.415.294-.823.59-.905.658-.27.221-3.248 2.414-3.57 2.628-.173.115-.696.494-1.163.843-.467.349-1.6 1.15-2.52 1.783a159.17 159.17 0 0 0-2.019 1.404c-.192.14-.88.598-1.532 1.016-.651.419-1.729 1.115-2.395 1.548-.666.433-1.24.787-1.276.787-.035 0-.68.29-1.434.643-3.933 1.844-6.124 2.588-10.215 3.47l-2.646.57c-1.196.257-2.183.36-3.9.412-2.065.06-2.374.04-3.054-.214zm52.217-39.29c-5.678-.496-12.028-2.019-16.225-3.89a96.407 96.407 0 0 0-.975-.422c-1.17-.5-4.379-2.136-5.813-2.965-3.52-2.034-6.95-4.64-9.994-7.592-1.653-1.603-1.855-1.848-1.671-2.022.114-.11 1.87-1.107 3.9-2.216 15.31-8.365 23.991-12.24 35.165-15.693 11.367-3.512 23.749-6.141 41.712-8.855 4.067-.614 10.946-1.599 11.173-1.599.479 0-1.022 6.23-2.4 9.958-2.366 6.406-5.475 11.661-10.004 16.908-1.613 1.869-4.864 5.01-6.71 6.485-.574.458-1.198.975-1.389 1.15-.19.174-.39.317-.443.317-.052 0-.181.078-.285.174a3.321 3.321 0 0 1-.416.313c-.124.077-.749.49-1.387.918-2.736 1.834-3.545 2.307-6.11 3.57-5.671 2.79-11.417 4.5-17.683 5.262-2.223.27-8.31.387-10.445.2zm-42.324-26.717c-.414-.414-2.55-4.763-3.461-7.047-1.722-4.316-2.807-8.535-3.474-13.51-.347-2.588-.347-10.363 0-12.951.85-6.341 2.466-11.774 5.11-17.182 1.47-3.007 2.42-4.553 3.06-4.976 1.238-.82 3.534-1.243 8.57-1.58a115.679 115.679 0 0 1 22.352.695c2.09.268 6.104.908 6.562 1.046.195.06.237.524.321 3.581.186 6.71.12 19.136-.119 22.315-.434 5.775-1.713 15.19-2.103 15.478-.117.087-.885.325-1.706.53-5.356 1.334-14.872 4.332-19.458 6.13-.537.21-1.383.54-1.88.73a41.36 41.36 0 0 0-1.324.533c-.23.101-.95.41-1.601.687-4.117 1.75-6.993 3.266-9.422 4.965-1.14.797-1.173.81-1.427.556zm-12.13-5.13c-3.378-.228-6.033-.6-6.756-.948-.23-.11-.887-.292-1.462-.405-2.942-.575-6.591-1.522-10.306-2.674-1.798-.558-7.52-2.65-8.742-3.198-2.823-1.264-3.55-1.598-4.489-2.062-1.574-.78-4.077-2.127-4.944-2.66-.46-.284-1.055-.648-1.323-.81-1.257-.763-4.623-3.198-5.431-3.93-5.208-4.714-7.42-8.485-7.43-12.666-.014-5.364 3.863-9.999 12.032-14.385 4.576-2.458 12.406-5.282 19.979-7.206.842-.215 1.626-.468 1.74-.563.59-.486 13.739-3.473 19.847-4.507 4.278-.724 15.165-2.09 15.332-1.924.03.03-.152.301-.406.602a64.1 64.1 0 0 0-1.56 2.009 62.395 62.395 0 0 1-1.916 2.424c-.451.53-.969 1.198-1.15 1.485-.182.288-.393.562-.47.61-.076.047-1.348.335-2.826.64-9.96 2.054-12.94 2.715-18.494 4.101-3.938.984-4.75 1.246-8.704 2.813-5.028 1.992-10.381 4.686-12.921 6.502-1.04.743-3.305 2.62-3.612 2.99-1.226 1.488-1.573 1.978-1.995 2.816-1.89 3.753-.884 7.367 3.199 11.484 4.79 4.83 13.026 9.712 26.192 15.523 2.888 1.275 4.373 1.809 7.965 2.86 1.01.297 1.807.586 1.772.643-.035.058-.36.147-.723.2-.362.052-.73.152-.818.222-.088.07-.37.109-.627.087a62.854 62.854 0 0 0-.954-.073zm61.864-14.138c1.673-9.714 2.406-16.967 2.91-28.794.09-2.107.186-3.857.215-3.89.07-.079 4.808.728 7.849 1.337 6.107 1.222 11.97 2.731 14.956 3.775 4.528 1.41 6.838 2.184 10.083 3.995.153.031.227.314-.357-1.159-.866-2.185-1.09-2.947-3.761-7.919-1.613-3.003-1.895-3.238-3.205-5.346-.996-1.602-1.3-2.178-1.928-3.144-.998-1.53-2.763-3.859-3.181-4.305-.078-.084-.299-.36-.49-.614a9.143 9.143 0 0 0-.497-.614c-.082-.083-.83-.967-1.664-1.962-.833-.996-1.58-1.881-1.662-1.967-.319-.337-2.02-2.232-2.3-2.56-.34-.4-1.818-2.029-2.605-2.869a368.83 368.83 0 0 1-3.028-3.315c-.2-.223-.347-.422-.326-.443.055-.055 1.982.555 3.864 1.222 11.93 4.229 22.042 12.593 28.469 23.548 1.163 1.983 3.006 5.858 3.89 8.18 1.402 3.68 2.514 8.127 3.099 12.395.253 1.846.412 9.18.237 10.932l-.11 1.115-5.502.09c-3.026.05-6.473.16-7.66.244-1.187.084-3.945.215-6.128.29-7.674.263-17.123 1.339-25.138 2.862l-4.008.761c-1.208.23-2.245.418-2.304.418-.06 0 .067-1.018.282-2.263zm19.342-35.642c-10.158-2.252-18.585-4.311-26.96-5.535-10.674-1.558-20.394-2.447-30.634-2.8-2.371-.081-4.339-.175-4.372-.208-.127-.127.733-1.078 2.378-2.628 8.392-7.909 18.748-12.845 30.12-14.36.843-.112 2.89-.28 4.551-.371l3.019-.168 1.925 1.441c2.801 2.098 6.258 4.87 8.332 6.682 2.23 1.948 7.603 7.51 9.574 9.76 3.003 3.43 7.466 9.3 7.632 9.604.04.072-1.601-.547-5.565-1.417zM72.829 93.186c-1.602-3.687-3.791-13.86-4.52-20.998-.267-2.621-.226-9.11.072-11.35.718-5.389 2.06-9.502 4.134-12.668 2.397-3.66 6.216-5.565 10.652-5.314 8.779.496 20.123 8.17 39.966 27.033 5.036 4.788 21.427 21.327 20.722 20.91-.314-.187-3.234-.628-7.453-1.127l-4.145-.49-1.356-1.011c-.746-.556-1.42-1.06-1.496-1.12l-.926-.707c-.433-.33-.881-.688-.996-.797a15.124 15.124 0 0 0-.736-.616c-.29-.23-.7-.574-.91-.766l-.844-.77a322.622 322.622 0 0 0-2.269-2.02 213.02 213.02 0 0 1-2.026-1.806c-.121-.114-.562-.499-.98-.854a355.5 355.5 0 0 1-3.677-3.165 9.038 9.038 0 0 0-.716-.576 15.872 15.872 0 0 1-.98-.798 65.805 65.805 0 0 0-1.583-1.315c-.498-.4-.937-.765-.975-.812-.224-.269-7.736-5.85-7.875-5.85-.036 0-.645-.393-1.353-.874-2.67-1.814-6.784-4.037-9.086-4.909a38.912 38.912 0 0 1-1.393-.554c-.643-.284-2.94-.868-4.152-1.056-1.7-.263-4.495-.095-5.852.353-1.322.436-1.751.652-2.72 1.368-3.353 2.476-5.244 7.162-6.027 14.934-.242 2.404-.239 11.427.006 15.638.104 1.784.158 3.274.122 3.31-.037.037-.32-.514-.628-1.223z"/></svg>