<?xml version="1.0" encoding="UTF-8" standalone="no"?>
<!-- Created with Inkscape (http://www.inkscape.org/) -->

<svg
   width="210mm"
   height="297mm"
   viewBox="0 0 210 297"
   version="1.1"
   id="svg5"
   xml:space="preserve"
   inkscape:version="1.2.2 (732a01da63, 2022-12-09)"
   sodipodi:docname="Iajedi_white_svg.svg"
   xmlns:inkscape="http://www.inkscape.org/namespaces/inkscape"
   xmlns:sodipodi="http://sodipodi.sourceforge.net/DTD/sodipodi-0.dtd"
   xmlns="http://www.w3.org/2000/svg"
   xmlns:svg="http://www.w3.org/2000/svg"><sodipodi:namedview
     id="namedview7"
     pagecolor="#ffffff"
     bordercolor="#000000"
     borderopacity="0.25"
     inkscape:showpageshadow="2"
     inkscape:pageopacity="0.0"
     inkscape:pagecheckerboard="0"
     inkscape:deskcolor="#d1d1d1"
     inkscape:document-units="mm"
     showgrid="false"
     inkscape:zoom="0.73851712"
     inkscape:cx="630.31715"
     inkscape:cy="719.00839"
     inkscape:window-width="1920"
     inkscape:window-height="1009"
     inkscape:window-x="-8"
     inkscape:window-y="-8"
     inkscape:window-maximized="1"
     inkscape:current-layer="layer1" /><defs
     id="defs2" /><g
     inkscape:label="Layer 1"
     inkscape:groupmode="layer"
     id="layer1"><path
       style="fill:#ffffff;stroke-width:0.139271;stroke:#ffffff"
       d="m 74.472136,236.3949 c -1.884125,-0.70163 -3.137892,-2.14213 -4.176484,-4.7985 -0.623042,-1.59354 -1.168458,-3.68405 -1.438098,-5.51204 -0.260831,-1.76827 -0.208336,-8.97019 0.08579,-11.77008 1.126681,-10.72519 3.200584,-18.17061 8.553986,-30.70928 0.664993,-1.55754 1.61922,-3.34165 3.426508,-6.40647 1.377667,-2.33628 2.752947,-4.67289 3.056177,-5.19248 l 0.551329,-0.94472 3.188467,4.78501 3.188466,4.78501 -2.341544,4.72487 c -5.72714,11.55649 -7.9628,17.66845 -9.115056,24.91919 -0.104761,0.65923 -0.174974,2.33685 -0.171953,4.1085 0.0043,2.52911 0.05118,3.20275 0.301639,4.33582 0.854848,3.86728 2.651817,6.20879 5.556054,7.23973 1.051445,0.37323 3.647569,0.50912 5.167062,0.27046 6.5901,-1.0351 15.570921,-5.3672 34.283861,-16.53756 1.33405,-0.79634 2.51159,-1.42964 2.61675,-1.40732 0.15564,0.033 -3.18402,2.76793 -4.83924,3.96291 -0.22953,0.16572 -0.65114,0.49692 -0.93691,0.73602 -0.28577,0.2391 -0.58231,0.47956 -0.65898,0.53434 -0.60479,0.43218 -1.3164,0.97242 -2.29785,1.74453 -0.42129,0.33144 -1.80008,1.37708 -3.06396,2.32367 -1.26389,0.94659 -2.32931,1.76004 -2.36761,1.80764 -0.0383,0.0476 -0.28899,0.23722 -0.55709,0.42134 -0.26809,0.18411 -0.51878,0.37093 -0.55708,0.41515 -0.0383,0.0442 -0.40964,0.32138 -0.82519,0.6159 -0.41556,0.29453 -0.82292,0.5908 -0.90526,0.65839 -0.26927,0.22105 -3.24825,2.41375 -3.57031,2.62796 -0.17275,0.1149 -0.69589,0.49422 -1.16253,0.84292 -0.46665,0.34871 -1.60051,1.15111 -2.5197,1.78311 -0.91919,0.63199 -1.82793,1.26388 -2.01943,1.4042 -0.1915,0.1403 -0.88089,0.59753 -1.531983,1.01606 -0.651093,0.41854 -1.728897,1.11515 -2.395121,1.54803 -0.666224,0.43288 -1.240148,0.78705 -1.275386,0.78705 -0.03524,0 -0.680913,0.2892 -1.434835,0.64267 -3.932274,1.8436 -6.123318,2.58788 -10.21448,3.46978 -0.574494,0.12384 -1.765262,0.38016 -2.646151,0.56958 -1.196222,0.25725 -2.183273,0.3616 -3.899591,0.41234 -2.065838,0.0611 -2.374372,0.0395 -3.054269,-0.21373 z m 52.216974,-39.28898 c -5.67843,-0.49687 -12.02833,-2.01969 -16.22509,-3.89108 -0.1532,-0.0683 -0.5919,-0.25801 -0.9749,-0.42156 -1.16936,-0.49934 -4.37865,-2.13654 -5.81354,-2.96573 -3.51865,-2.03336 -6.950234,-4.64015 -9.993727,-7.59173 -1.652614,-1.60269 -1.854876,-1.84743 -1.671253,-2.0222 0.114899,-0.10936 1.869715,-1.10627 3.899591,-2.21537 15.310919,-8.3657 23.992099,-12.23968 35.165959,-15.69283 11.36662,-3.51272 23.74855,-6.14138 41.71169,-8.85532 4.06733,-0.61451 10.94611,-1.59892 11.17282,-1.59892 0.47913,0 -1.02157,6.22944 -2.3989,9.95789 -2.36632,6.40561 -5.47596,11.66109 -10.00447,16.90812 -1.61293,1.86884 -4.86384,5.01034 -6.7111,6.48522 -0.57273,0.45728 -1.19737,0.97433 -1.38809,1.14899 -0.19072,0.17466 -0.38992,0.31756 -0.44269,0.31756 -0.0528,0 -0.18138,0.0783 -0.28584,0.17409 -0.10445,0.0958 -0.29156,0.23676 -0.41581,0.31336 -0.12423,0.0766 -0.7483,0.48954 -1.38682,0.91763 -2.73554,1.83408 -3.54527,2.30708 -6.1102,3.56943 -5.6707,2.79087 -11.41691,4.50102 -17.6823,5.2625 -2.22393,0.27029 -8.31012,0.3868 -10.44533,0.19995 z M 84.364934,170.38849 c -0.414131,-0.41413 -2.550536,-4.76387 -3.461403,-7.04744 -1.721607,-4.31613 -2.806345,-8.53481 -3.473601,-13.5093 -0.347232,-2.58865 -0.347232,-10.36356 0,-12.95221 0.850547,-6.34093 2.466334,-11.77395 5.109714,-17.18119 1.47009,-3.00718 2.421103,-4.55368 3.060457,-4.97678 1.237491,-0.81893 3.534106,-1.24218 8.569201,-1.57924 7.373538,-0.49359 14.936578,-0.25868 22.353018,0.6943 2.08887,0.26841 6.10337,0.90882 6.56133,1.04669 0.19533,0.0588 0.23715,0.52412 0.32185,3.5809 0.1859,6.70966 0.11946,19.13599 -0.11931,22.31491 -0.43378,5.77532 -1.71276,15.18981 -2.1027,15.47791 -0.11768,0.0869 -0.88556,0.32541 -1.7064,0.52992 -5.35565,1.33433 -14.87208,4.33238 -19.4584,6.13016 -0.536195,0.21019 -1.382267,0.53899 -1.880161,0.73069 -0.497894,0.19169 -1.093278,0.43125 -1.323076,0.53235 -0.229797,0.10109 -0.950525,0.41025 -1.601618,0.68701 -4.117072,1.75004 -6.993333,3.26566 -9.422069,4.96487 -1.139058,0.79691 -1.173092,0.81019 -1.426832,0.55645 z m -12.130832,-5.13057 c -3.377323,-0.22812 -6.032365,-0.60056 -6.754648,-0.94753 -0.229798,-0.11039 -0.887854,-0.29269 -1.462347,-0.40512 -2.941815,-0.57568 -6.591408,-1.52273 -10.306062,-2.67436 -1.797971,-0.55742 -7.519459,-2.65022 -8.742509,-3.19783 -2.822409,-1.26372 -3.549821,-1.598 -4.488246,-2.06257 -1.574219,-0.77932 -4.077442,-2.12606 -4.944125,-2.65995 -0.459594,-0.28312 -1.054978,-0.64777 -1.323075,-0.81034 -1.257181,-0.76232 -4.623507,-3.19737 -5.431574,-3.92894 -5.207705,-4.71476 -7.419068,-8.48483 -7.429721,-12.66664 -0.01366,-5.3634 3.863439,-9.9986 12.032166,-14.38486 4.576407,-2.45734 12.405834,-5.28134 19.978906,-7.20619 0.84259,-0.21416 1.62599,-0.46715 1.740889,-0.5622 0.588416,-0.48674 13.737926,-3.47326 19.846133,-4.50746 4.277824,-0.72428 15.16543,-2.09068 15.331953,-1.92416 0.03069,0.0307 -0.151889,0.30165 -0.405721,0.60213 -0.253833,0.30048 -0.955468,1.20439 -1.559193,2.00868 -0.603723,0.80429 -1.46655,1.89529 -1.917391,2.42444 -0.450842,0.52916 -0.968384,1.19761 -1.150095,1.48546 -0.18171,0.28785 -0.392887,0.56199 -0.469281,0.60921 -0.0764,0.0472 -1.348042,0.33517 -2.825884,0.6399 -9.960708,2.05393 -12.941053,2.71495 -18.494254,4.10189 -3.938163,0.98357 -4.749091,1.24563 -8.704445,2.8129 -5.027304,1.99202 -10.380641,4.68565 -12.920633,6.50124 -1.03956,0.74308 -3.30541,2.6196 -3.611533,2.99098 -1.226325,1.48774 -1.573451,1.9775 -1.995245,2.81507 -1.890354,3.75374 -0.884083,7.36696 3.198372,11.48437 4.789713,4.83073 13.026098,9.71218 26.192186,15.5233 2.888503,1.2749 4.37349,1.80822 7.964835,2.86047 1.010299,0.29602 1.807906,0.58514 1.77246,0.64249 -0.03544,0.0573 -0.360677,0.14714 -0.722737,0.19953 -0.362061,0.0524 -0.730267,0.1524 -0.818238,0.22226 -0.08797,0.0699 -0.369994,0.10896 -0.62672,0.0869 -0.256725,-0.0221 -0.686126,-0.055 -0.954223,-0.0731 z m 61.864568,-14.13791 c 1.67326,-9.71412 2.40625,-16.96747 2.90981,-28.7943 0.0897,-2.10648 0.18666,-3.85667 0.21549,-3.88933 0.07,-0.0793 4.80787,0.72733 7.84892,1.33624 6.10673,1.22274 11.97017,2.73171 14.95626,3.77577 4.52814,1.40945 6.83807,2.18407 10.08287,3.99465 0.15255,0.0313 0.22724,0.31381 -0.35661,-1.15877 -0.86625,-2.18484 -1.09124,-2.94704 -3.76171,-7.91922 -1.61291,-3.0031 -1.89435,-3.23844 -3.20495,-5.346 -0.9961,-1.60183 -1.29896,-2.17808 -1.92805,-3.14371 -0.99735,-1.5309 -2.76308,-3.85893 -3.18078,-4.30529 -0.0782,-0.0836 -0.29894,-0.3599 -0.49044,-0.61396 -0.1915,-0.25406 -0.41508,-0.53034 -0.49685,-0.61396 -0.0818,-0.0836 -0.83028,-0.96677 -1.66333,-1.96255 -0.83305,-0.99579 -1.58088,-1.88057 -1.66184,-1.96619 -0.31931,-0.33764 -2.02102,-2.232035 -2.29971,-2.560115 -0.34002,-0.40028 -1.81901,-2.02891 -2.60535,-2.86893 -0.50413,-0.53856 -2.22864,-2.42681 -3.02814,-3.315648 -0.20027,-0.222653 -0.34689,-0.422066 -0.32582,-0.44314 0.0543,-0.05435 1.98168,0.555581 3.86404,1.222811 11.92894,4.228397 22.04106,12.592742 28.46813,23.547662 1.16333,1.98291 3.00663,5.85806 3.89071,8.17947 1.40193,3.68114 2.51337,8.1275 3.09836,12.39513 0.25307,1.84612 0.41255,9.18066 0.23774,10.93279 l -0.11117,1.11416 -5.50121,0.0904 c -3.02566,0.0497 -6.47262,0.15951 -7.65991,0.24396 -1.18728,0.0845 -3.94485,0.21491 -6.12793,0.28988 -7.67468,0.26359 -17.12335,1.3392 -25.13843,2.8617 -0.99579,0.18915 -2.79909,0.53196 -4.00733,0.76178 -1.20824,0.22983 -2.24535,0.41787 -2.3047,0.41787 -0.0593,0 0.0675,-1.01842 0.28193,-2.26316 z m 19.34219,-35.64176 c -10.1581,-2.25238 -18.58461,-4.3116 -26.96066,-5.53489 -10.67325,-1.55878 -20.39342,-2.44717 -30.633441,-2.79981 -2.371161,-0.0817 -4.338401,-0.17567 -4.371644,-0.20891 -0.127072,-0.12707 0.733069,-1.07748 2.378376,-2.62797 8.391939,-7.908315 18.747339,-12.845146 30.119829,-14.359324 0.84259,-0.112186 2.89042,-0.279442 4.55074,-0.371681 l 3.01875,-0.167706 1.92537,1.441453 c 2.80127,2.097203 6.25816,4.869373 8.33184,6.681513 2.22963,1.94842 7.60329,7.510105 9.57376,9.760115 3.00327,3.4293 7.46635,9.30007 7.63272,9.60381 0.0393,0.0718 -1.60199,-0.54706 -5.56564,-1.4166 z M 72.829367,93.185535 c -1.601881,-3.686923 -3.791801,-13.859679 -4.520179,-20.997417 -0.267519,-2.621554 -0.226334,-9.110698 0.07204,-11.350595 0.71775,-5.388145 2.060014,-9.501163 4.134109,-12.667897 2.396724,-3.659324 6.215657,-5.564527 10.651547,-5.313883 8.77876,0.496034 20.123426,8.169686 39.966326,27.033651 5.03564,4.78722 21.42723,21.327011 20.72131,20.908669 -0.31324,-0.185627 -3.23388,-0.626793 -7.4528,-1.125751 l -4.14485,-0.4902 -1.35622,-1.011175 c -0.74591,-0.556145 -1.41894,-1.059914 -1.49562,-1.119483 -0.0767,-0.05957 -0.4936,-0.377951 -0.92651,-0.707516 -0.4329,-0.329562 -0.88093,-0.688191 -0.99563,-0.796952 -0.11469,-0.108762 -0.44599,-0.385764 -0.73622,-0.615562 -0.29023,-0.229797 -0.69937,-0.574493 -0.90921,-0.765991 -0.20983,-0.191497 -0.58976,-0.538441 -0.84429,-0.770985 -0.25452,-0.232545 -1.27552,-1.141289 -2.26888,-2.019431 -0.99336,-0.878143 -1.90526,-1.690632 -2.02644,-1.80553 -0.12118,-0.114899 -0.56187,-0.499245 -0.97931,-0.854105 -1.32788,-1.128809 -3.25166,-2.784581 -3.67741,-3.165105 -0.22636,-0.202306 -0.5484,-0.461838 -0.71565,-0.576737 -0.16725,-0.114899 -0.60877,-0.473626 -0.98116,-0.797172 -0.37238,-0.323547 -1.08443,-0.915609 -1.58232,-1.315696 -0.4979,-0.400087 -0.9366,-0.765126 -0.9749,-0.811198 -0.22385,-0.269274 -7.73625,-5.850014 -7.87488,-5.850014 -0.0363,0 -0.64513,-0.393492 -1.35302,-0.874429 -2.67041,-1.814261 -6.784599,-4.036993 -9.086254,-4.908939 -0.536194,-0.203128 -1.162914,-0.452341 -1.392712,-0.553804 -0.642974,-0.283899 -2.940212,-0.868105 -4.151936,-1.055873 -1.700493,-0.263508 -4.49576,-0.09507 -5.852155,0.352636 -1.321874,0.436313 -1.751293,0.652236 -2.720005,1.367684 -3.353309,2.476609 -5.244179,7.161972 -6.02701,14.934254 -0.242166,2.404325 -0.238759,11.426743 0.0059,15.638442 0.103624,1.783824 0.158402,3.273314 0.12173,3.309994 -0.03668,0.0367 -0.319004,-0.51407 -0.627399,-1.22389 z"
       id="path179"
       sodipodi:nodetypes="ssssssscccsssssssssscssssssssssssssssssssssssssssssssssssscsssssssssssssssssssssssscssssscssssssssssscssssssssssscsscsssccsssssssssssssssssscscssssccscsssscsssscsssssssscsssssssssssssssssssssssssss" /></g></svg>
